<mxfile host="app.diagrams.net" modified="2021-06-02T17:59:45.995Z" agent="5.0 (Windows NT 10.0; Win64; x64) AppleWebKit/537.36 (KHTML, like Gecko) Chrome/90.0.4430.212 Safari/537.36" etag="Pnbw9pKln12q57gVxF7y" version="14.7.0" type="github">
  <diagram id="JxYpquZwZ6zsXnLfhXGS" name="Page-1">
    <mxGraphModel dx="1483" dy="783" grid="0" gridSize="10" guides="1" tooltips="1" connect="1" arrows="1" fold="1" page="1" pageScale="1" pageWidth="850" pageHeight="1100" math="0" shadow="0">
      <root>
        <mxCell id="0" />
        <mxCell id="1" parent="0" />
        <mxCell id="KNm6pyuOkcGfjuNK4ojw-7" value="CPU generates the memory request" style="text;html=1;strokeColor=none;fillColor=none;align=center;verticalAlign=middle;whiteSpace=wrap;rounded=0;" vertex="1" parent="1">
          <mxGeometry x="250" y="20" width="270" height="20" as="geometry" />
        </mxCell>
        <mxCell id="KNm6pyuOkcGfjuNK4ojw-9" value="Direct CM&amp;nbsp;" style="text;html=1;strokeColor=none;fillColor=none;align=center;verticalAlign=middle;whiteSpace=wrap;rounded=0;" vertex="1" parent="1">
          <mxGeometry x="260" y="150" width="270" height="20" as="geometry" />
        </mxCell>
        <mxCell id="KNm6pyuOkcGfjuNK4ojw-10" value="Address format" style="text;html=1;strokeColor=none;fillColor=none;align=center;verticalAlign=middle;whiteSpace=wrap;rounded=0;" vertex="1" parent="1">
          <mxGeometry x="260" y="230" width="270" height="20" as="geometry" />
        </mxCell>
        <mxCell id="KNm6pyuOkcGfjuNK4ojw-11" value="Address decoder of CM" style="text;html=1;strokeColor=none;fillColor=none;align=center;verticalAlign=middle;whiteSpace=wrap;rounded=0;" vertex="1" parent="1">
          <mxGeometry x="380" y="480" width="130" height="20" as="geometry" />
        </mxCell>
        <mxCell id="KNm6pyuOkcGfjuNK4ojw-12" value="Compare" style="text;html=1;strokeColor=#666666;fillColor=#f5f5f5;align=center;verticalAlign=middle;whiteSpace=wrap;rounded=0;fontColor=#333333;" vertex="1" parent="1">
          <mxGeometry x="60" y="540" width="170" height="20" as="geometry" />
        </mxCell>
        <mxCell id="KNm6pyuOkcGfjuNK4ojw-21" value="" style="group" vertex="1" connectable="0" parent="1">
          <mxGeometry x="225" y="250" width="340" height="60" as="geometry" />
        </mxCell>
        <mxCell id="KNm6pyuOkcGfjuNK4ojw-13" value="" style="rounded=0;whiteSpace=wrap;html=1;" vertex="1" parent="KNm6pyuOkcGfjuNK4ojw-21">
          <mxGeometry width="340" height="60" as="geometry" />
        </mxCell>
        <mxCell id="KNm6pyuOkcGfjuNK4ojw-14" value="" style="endArrow=none;html=1;exitX=0.25;exitY=1;exitDx=0;exitDy=0;entryX=0.25;entryY=0;entryDx=0;entryDy=0;" edge="1" parent="KNm6pyuOkcGfjuNK4ojw-21" source="KNm6pyuOkcGfjuNK4ojw-13" target="KNm6pyuOkcGfjuNK4ojw-13">
          <mxGeometry width="50" height="50" relative="1" as="geometry">
            <mxPoint x="210" y="-70" as="sourcePoint" />
            <mxPoint x="260" y="-120" as="targetPoint" />
          </mxGeometry>
        </mxCell>
        <mxCell id="KNm6pyuOkcGfjuNK4ojw-15" value="" style="endArrow=none;html=1;exitX=0.5;exitY=1;exitDx=0;exitDy=0;entryX=0.5;entryY=0;entryDx=0;entryDy=0;" edge="1" parent="KNm6pyuOkcGfjuNK4ojw-21">
          <mxGeometry width="50" height="50" relative="1" as="geometry">
            <mxPoint x="220" y="60" as="sourcePoint" />
            <mxPoint x="220" as="targetPoint" />
          </mxGeometry>
        </mxCell>
        <mxCell id="KNm6pyuOkcGfjuNK4ojw-16" value="TAG" style="text;html=1;strokeColor=none;fillColor=none;align=center;verticalAlign=middle;whiteSpace=wrap;rounded=0;" vertex="1" parent="KNm6pyuOkcGfjuNK4ojw-21">
          <mxGeometry x="10" y="20" width="40" height="20" as="geometry" />
        </mxCell>
        <mxCell id="KNm6pyuOkcGfjuNK4ojw-17" value="INDEX" style="text;html=1;strokeColor=none;fillColor=none;align=center;verticalAlign=middle;whiteSpace=wrap;rounded=0;" vertex="1" parent="KNm6pyuOkcGfjuNK4ojw-21">
          <mxGeometry x="130" y="20" width="40" height="20" as="geometry" />
        </mxCell>
        <mxCell id="KNm6pyuOkcGfjuNK4ojw-19" value="WO" style="text;html=1;strokeColor=none;fillColor=none;align=center;verticalAlign=middle;whiteSpace=wrap;rounded=0;" vertex="1" parent="KNm6pyuOkcGfjuNK4ojw-21">
          <mxGeometry x="280" y="20" width="40" height="20" as="geometry" />
        </mxCell>
        <mxCell id="KNm6pyuOkcGfjuNK4ojw-22" value="" style="group" vertex="1" connectable="0" parent="1">
          <mxGeometry x="325" y="50" width="140" height="60" as="geometry" />
        </mxCell>
        <mxCell id="KNm6pyuOkcGfjuNK4ojw-23" value="" style="group" vertex="1" connectable="0" parent="KNm6pyuOkcGfjuNK4ojw-22">
          <mxGeometry width="140" height="60" as="geometry" />
        </mxCell>
        <mxCell id="KNm6pyuOkcGfjuNK4ojw-1" value="" style="rounded=0;whiteSpace=wrap;html=1;" vertex="1" parent="KNm6pyuOkcGfjuNK4ojw-23">
          <mxGeometry width="140" height="60" as="geometry" />
        </mxCell>
        <mxCell id="KNm6pyuOkcGfjuNK4ojw-4" value="&lt;font style=&quot;font-size: 10px&quot;&gt;RD&lt;/font&gt;" style="text;html=1;strokeColor=none;fillColor=none;align=center;verticalAlign=middle;whiteSpace=wrap;rounded=0;" vertex="1" parent="KNm6pyuOkcGfjuNK4ojw-23">
          <mxGeometry x="90" y="20" width="40" height="20" as="geometry" />
        </mxCell>
        <mxCell id="KNm6pyuOkcGfjuNK4ojw-2" value="" style="endArrow=none;html=1;entryX=0.5;entryY=0;entryDx=0;entryDy=0;exitX=0.5;exitY=1;exitDx=0;exitDy=0;" edge="1" parent="KNm6pyuOkcGfjuNK4ojw-23" source="KNm6pyuOkcGfjuNK4ojw-1" target="KNm6pyuOkcGfjuNK4ojw-1">
          <mxGeometry width="50" height="50" relative="1" as="geometry">
            <mxPoint x="105" y="220" as="sourcePoint" />
            <mxPoint x="155" y="170" as="targetPoint" />
          </mxGeometry>
        </mxCell>
        <mxCell id="KNm6pyuOkcGfjuNK4ojw-3" value="1001" style="text;html=1;strokeColor=none;fillColor=none;align=center;verticalAlign=middle;whiteSpace=wrap;rounded=0;" vertex="1" parent="KNm6pyuOkcGfjuNK4ojw-23">
          <mxGeometry x="12.5" y="20" width="40" height="20" as="geometry" />
        </mxCell>
        <mxCell id="KNm6pyuOkcGfjuNK4ojw-25" value="" style="endArrow=none;html=1;entryX=0.75;entryY=0;entryDx=0;entryDy=0;exitX=0.25;exitY=0;exitDx=0;exitDy=0;" edge="1" parent="KNm6pyuOkcGfjuNK4ojw-23" source="KNm6pyuOkcGfjuNK4ojw-4" target="KNm6pyuOkcGfjuNK4ojw-4">
          <mxGeometry width="50" height="50" relative="1" as="geometry">
            <mxPoint x="80" y="50" as="sourcePoint" />
            <mxPoint x="130" as="targetPoint" />
          </mxGeometry>
        </mxCell>
        <mxCell id="KNm6pyuOkcGfjuNK4ojw-30" value="" style="group" vertex="1" connectable="0" parent="1">
          <mxGeometry x="225" y="380" width="340" height="60" as="geometry" />
        </mxCell>
        <mxCell id="KNm6pyuOkcGfjuNK4ojw-31" value="" style="rounded=0;whiteSpace=wrap;html=1;" vertex="1" parent="KNm6pyuOkcGfjuNK4ojw-30">
          <mxGeometry width="340" height="60" as="geometry" />
        </mxCell>
        <mxCell id="KNm6pyuOkcGfjuNK4ojw-32" value="" style="endArrow=none;html=1;exitX=0.25;exitY=1;exitDx=0;exitDy=0;entryX=0.25;entryY=0;entryDx=0;entryDy=0;" edge="1" parent="KNm6pyuOkcGfjuNK4ojw-30" source="KNm6pyuOkcGfjuNK4ojw-31" target="KNm6pyuOkcGfjuNK4ojw-31">
          <mxGeometry width="50" height="50" relative="1" as="geometry">
            <mxPoint x="210" y="-70" as="sourcePoint" />
            <mxPoint x="260" y="-120" as="targetPoint" />
          </mxGeometry>
        </mxCell>
        <mxCell id="KNm6pyuOkcGfjuNK4ojw-33" value="" style="endArrow=none;html=1;exitX=0.5;exitY=1;exitDx=0;exitDy=0;entryX=0.5;entryY=0;entryDx=0;entryDy=0;" edge="1" parent="KNm6pyuOkcGfjuNK4ojw-30">
          <mxGeometry width="50" height="50" relative="1" as="geometry">
            <mxPoint x="220" y="60" as="sourcePoint" />
            <mxPoint x="220" as="targetPoint" />
          </mxGeometry>
        </mxCell>
        <mxCell id="KNm6pyuOkcGfjuNK4ojw-34" value="1" style="text;html=1;strokeColor=none;fillColor=none;align=center;verticalAlign=middle;whiteSpace=wrap;rounded=0;" vertex="1" parent="KNm6pyuOkcGfjuNK4ojw-30">
          <mxGeometry x="10" y="20" width="40" height="20" as="geometry" />
        </mxCell>
        <mxCell id="KNm6pyuOkcGfjuNK4ojw-35" value="00" style="text;html=1;strokeColor=none;fillColor=none;align=center;verticalAlign=middle;whiteSpace=wrap;rounded=0;" vertex="1" parent="KNm6pyuOkcGfjuNK4ojw-30">
          <mxGeometry x="130" y="20" width="40" height="20" as="geometry" />
        </mxCell>
        <mxCell id="KNm6pyuOkcGfjuNK4ojw-36" value="1" style="text;html=1;strokeColor=none;fillColor=none;align=center;verticalAlign=middle;whiteSpace=wrap;rounded=0;" vertex="1" parent="KNm6pyuOkcGfjuNK4ojw-30">
          <mxGeometry x="280" y="20" width="40" height="20" as="geometry" />
        </mxCell>
        <mxCell id="KNm6pyuOkcGfjuNK4ojw-51" value="" style="endArrow=classic;html=1;exitX=0.5;exitY=1;exitDx=0;exitDy=0;entryX=0.5;entryY=0;entryDx=0;entryDy=0;" edge="1" parent="1" source="KNm6pyuOkcGfjuNK4ojw-1" target="KNm6pyuOkcGfjuNK4ojw-9">
          <mxGeometry width="50" height="50" relative="1" as="geometry">
            <mxPoint x="400" y="210" as="sourcePoint" />
            <mxPoint x="296" y="150" as="targetPoint" />
          </mxGeometry>
        </mxCell>
        <mxCell id="KNm6pyuOkcGfjuNK4ojw-53" value="" style="endArrow=classic;html=1;" edge="1" parent="1">
          <mxGeometry width="50" height="50" relative="1" as="geometry">
            <mxPoint x="394.5" y="170" as="sourcePoint" />
            <mxPoint x="394.5" y="230" as="targetPoint" />
          </mxGeometry>
        </mxCell>
        <mxCell id="KNm6pyuOkcGfjuNK4ojw-54" value="1 bit" style="text;html=1;strokeColor=none;fillColor=none;align=center;verticalAlign=middle;whiteSpace=wrap;rounded=0;" vertex="1" parent="1">
          <mxGeometry x="250" y="320" width="40" height="20" as="geometry" />
        </mxCell>
        <mxCell id="KNm6pyuOkcGfjuNK4ojw-55" value="2 bit" style="text;html=1;strokeColor=none;fillColor=none;align=center;verticalAlign=middle;whiteSpace=wrap;rounded=0;" vertex="1" parent="1">
          <mxGeometry x="350" y="320" width="40" height="20" as="geometry" />
        </mxCell>
        <mxCell id="KNm6pyuOkcGfjuNK4ojw-56" value="1 bit" style="text;html=1;strokeColor=none;fillColor=none;align=center;verticalAlign=middle;whiteSpace=wrap;rounded=0;" vertex="1" parent="1">
          <mxGeometry x="490" y="320" width="50" height="20" as="geometry" />
        </mxCell>
        <mxCell id="KNm6pyuOkcGfjuNK4ojw-58" value="" style="group" vertex="1" connectable="0" parent="1">
          <mxGeometry x="530" y="515" width="120" height="150" as="geometry" />
        </mxCell>
        <mxCell id="KNm6pyuOkcGfjuNK4ojw-42" value="&lt;span style=&quot;color: rgba(0 , 0 , 0 , 0) ; font-family: monospace ; font-size: 0px&quot;&gt;%3CmxGraphModel%3E%3Croot%3E%3CmxCell%20id%3D%220%22%2F%3E%3CmxCell%20id%3D%221%22%20parent%3D%220%22%2F%3E%3CmxCell%20id%3D%222%22%20value%3D%22B4%22%20style%3D%22text%3Bhtml%3D1%3BstrokeColor%3Dnone%3BfillColor%3Dnone%3Balign%3Dcenter%3BverticalAlign%3Dmiddle%3BwhiteSpace%3Dwrap%3Brounded%3D0%3BfontStyle%3D1%22%20vertex%3D%221%22%20parent%3D%221%22%3E%3CmxGeometry%20x%3D%22600%22%20y%3D%22525%22%20width%3D%2240%22%20height%3D%2220%22%20as%3D%22geometry%22%2F%3E%3C%2FmxCell%3E%3C%2Froot%3E%3C%2FmxGraphModel%3E&lt;/span&gt;" style="rounded=0;whiteSpace=wrap;html=1;" vertex="1" parent="KNm6pyuOkcGfjuNK4ojw-58">
          <mxGeometry width="120" height="150" as="geometry" />
        </mxCell>
        <mxCell id="KNm6pyuOkcGfjuNK4ojw-43" value="" style="endArrow=none;html=1;exitX=0;exitY=0.25;exitDx=0;exitDy=0;entryX=1;entryY=0.25;entryDx=0;entryDy=0;" edge="1" parent="KNm6pyuOkcGfjuNK4ojw-58" source="KNm6pyuOkcGfjuNK4ojw-42" target="KNm6pyuOkcGfjuNK4ojw-42">
          <mxGeometry width="50" height="50" relative="1" as="geometry">
            <mxPoint x="35" y="50" as="sourcePoint" />
            <mxPoint x="85" as="targetPoint" />
            <Array as="points">
              <mxPoint x="70" y="38" />
            </Array>
          </mxGeometry>
        </mxCell>
        <mxCell id="KNm6pyuOkcGfjuNK4ojw-44" value="" style="endArrow=none;html=1;exitX=0;exitY=0.25;exitDx=0;exitDy=0;entryX=1;entryY=0.25;entryDx=0;entryDy=0;" edge="1" parent="KNm6pyuOkcGfjuNK4ojw-58">
          <mxGeometry width="50" height="50" relative="1" as="geometry">
            <mxPoint y="70" as="sourcePoint" />
            <mxPoint x="120" y="70" as="targetPoint" />
          </mxGeometry>
        </mxCell>
        <mxCell id="KNm6pyuOkcGfjuNK4ojw-45" value="" style="endArrow=none;html=1;exitX=0;exitY=0.25;exitDx=0;exitDy=0;entryX=1;entryY=0.25;entryDx=0;entryDy=0;" edge="1" parent="KNm6pyuOkcGfjuNK4ojw-58">
          <mxGeometry width="50" height="50" relative="1" as="geometry">
            <mxPoint y="109.5" as="sourcePoint" />
            <mxPoint x="120" y="109.5" as="targetPoint" />
          </mxGeometry>
        </mxCell>
        <mxCell id="KNm6pyuOkcGfjuNK4ojw-46" value="0&lt;br&gt;1" style="text;html=1;strokeColor=none;fillColor=none;align=center;verticalAlign=middle;whiteSpace=wrap;rounded=0;" vertex="1" parent="KNm6pyuOkcGfjuNK4ojw-58">
          <mxGeometry x="10" y="10" width="20" height="20" as="geometry" />
        </mxCell>
        <mxCell id="KNm6pyuOkcGfjuNK4ojw-47" value="0&lt;br&gt;1" style="text;html=1;strokeColor=none;fillColor=none;align=center;verticalAlign=middle;whiteSpace=wrap;rounded=0;" vertex="1" parent="KNm6pyuOkcGfjuNK4ojw-58">
          <mxGeometry x="10" y="80" width="20" height="20" as="geometry" />
        </mxCell>
        <mxCell id="KNm6pyuOkcGfjuNK4ojw-48" value="0&lt;br&gt;1" style="text;html=1;strokeColor=none;fillColor=none;align=center;verticalAlign=middle;whiteSpace=wrap;rounded=0;" vertex="1" parent="KNm6pyuOkcGfjuNK4ojw-58">
          <mxGeometry x="10" y="120" width="20" height="20" as="geometry" />
        </mxCell>
        <mxCell id="KNm6pyuOkcGfjuNK4ojw-50" value="0&lt;br&gt;1" style="text;html=1;strokeColor=none;fillColor=none;align=center;verticalAlign=middle;whiteSpace=wrap;rounded=0;" vertex="1" parent="KNm6pyuOkcGfjuNK4ojw-58">
          <mxGeometry x="10" y="40" width="20" height="20" as="geometry" />
        </mxCell>
        <mxCell id="KNm6pyuOkcGfjuNK4ojw-83" value="B4" style="text;html=1;strokeColor=none;fillColor=none;align=center;verticalAlign=middle;whiteSpace=wrap;rounded=0;fontStyle=1" vertex="1" parent="KNm6pyuOkcGfjuNK4ojw-58">
          <mxGeometry x="80" y="15" width="40" height="20" as="geometry" />
        </mxCell>
        <mxCell id="KNm6pyuOkcGfjuNK4ojw-93" value="" style="endArrow=classic;html=1;dashed=1;entryX=0.25;entryY=0;entryDx=0;entryDy=0;" edge="1" parent="KNm6pyuOkcGfjuNK4ojw-58" target="KNm6pyuOkcGfjuNK4ojw-83">
          <mxGeometry width="50" height="50" relative="1" as="geometry">
            <mxPoint x="-80" y="-425" as="sourcePoint" />
            <mxPoint x="70" y="35" as="targetPoint" />
            <Array as="points">
              <mxPoint x="90" y="-425" />
            </Array>
          </mxGeometry>
        </mxCell>
        <mxCell id="KNm6pyuOkcGfjuNK4ojw-96" value="B7" style="text;html=1;align=center;verticalAlign=middle;resizable=0;points=[];autosize=1;strokeColor=none;fontStyle=1" vertex="1" parent="KNm6pyuOkcGfjuNK4ojw-58">
          <mxGeometry x="80" y="120" width="30" height="20" as="geometry" />
        </mxCell>
        <mxCell id="KNm6pyuOkcGfjuNK4ojw-59" value="" style="endArrow=classic;html=1;exitX=0.532;exitY=0.99;exitDx=0;exitDy=0;exitPerimeter=0;entryX=0.525;entryY=0.023;entryDx=0;entryDy=0;entryPerimeter=0;" edge="1" parent="1" source="KNm6pyuOkcGfjuNK4ojw-13" target="KNm6pyuOkcGfjuNK4ojw-31">
          <mxGeometry width="50" height="50" relative="1" as="geometry">
            <mxPoint x="400" y="400" as="sourcePoint" />
            <mxPoint x="410" y="380" as="targetPoint" />
          </mxGeometry>
        </mxCell>
        <mxCell id="KNm6pyuOkcGfjuNK4ojw-61" value="1" style="text;html=1;strokeColor=#666666;fillColor=#f5f5f5;align=center;verticalAlign=middle;whiteSpace=wrap;rounded=0;fontColor=#333333;" vertex="1" parent="1">
          <mxGeometry x="280" y="510" width="40" height="20" as="geometry" />
        </mxCell>
        <mxCell id="KNm6pyuOkcGfjuNK4ojw-62" value="x" style="text;html=1;strokeColor=#666666;fillColor=#f5f5f5;align=center;verticalAlign=middle;whiteSpace=wrap;rounded=0;fontColor=#333333;" vertex="1" parent="1">
          <mxGeometry x="280" y="550" width="40" height="20" as="geometry" />
        </mxCell>
        <mxCell id="KNm6pyuOkcGfjuNK4ojw-63" value="x" style="text;html=1;strokeColor=#666666;fillColor=#f5f5f5;align=center;verticalAlign=middle;whiteSpace=wrap;rounded=0;fontColor=#333333;" vertex="1" parent="1">
          <mxGeometry x="280" y="580" width="40" height="20" as="geometry" />
        </mxCell>
        <mxCell id="KNm6pyuOkcGfjuNK4ojw-64" value="1" style="text;html=1;strokeColor=#666666;fillColor=#f5f5f5;align=center;verticalAlign=middle;whiteSpace=wrap;rounded=0;fontColor=#333333;" vertex="1" parent="1">
          <mxGeometry x="280" y="630" width="40" height="20" as="geometry" />
        </mxCell>
        <mxCell id="KNm6pyuOkcGfjuNK4ojw-65" value="00" style="text;html=1;strokeColor=none;fillColor=none;align=center;verticalAlign=middle;whiteSpace=wrap;rounded=0;" vertex="1" parent="1">
          <mxGeometry x="499.99727272727273" y="520" width="7.272727272727273" height="20" as="geometry" />
        </mxCell>
        <mxCell id="KNm6pyuOkcGfjuNK4ojw-67" value="01" style="text;html=1;strokeColor=none;fillColor=none;align=center;verticalAlign=middle;whiteSpace=wrap;rounded=0;" vertex="1" parent="1">
          <mxGeometry x="499.99727272727273" y="550" width="7.272727272727273" height="20" as="geometry" />
        </mxCell>
        <mxCell id="KNm6pyuOkcGfjuNK4ojw-68" value="10" style="text;html=1;strokeColor=none;fillColor=none;align=center;verticalAlign=middle;whiteSpace=wrap;rounded=0;" vertex="1" parent="1">
          <mxGeometry x="499.99727272727273" y="590" width="7.272727272727273" height="20" as="geometry" />
        </mxCell>
        <mxCell id="KNm6pyuOkcGfjuNK4ojw-69" value="11" style="text;html=1;strokeColor=none;fillColor=none;align=center;verticalAlign=middle;whiteSpace=wrap;rounded=0;" vertex="1" parent="1">
          <mxGeometry x="499.99727272727273" y="630" width="7.272727272727273" height="20" as="geometry" />
        </mxCell>
        <mxCell id="KNm6pyuOkcGfjuNK4ojw-74" value="" style="endArrow=classic;html=1;exitX=0.643;exitY=1.077;exitDx=0;exitDy=0;exitPerimeter=0;" edge="1" parent="1" source="KNm6pyuOkcGfjuNK4ojw-31">
          <mxGeometry width="50" height="50" relative="1" as="geometry">
            <mxPoint x="400" y="400" as="sourcePoint" />
            <mxPoint x="444" y="480" as="targetPoint" />
          </mxGeometry>
        </mxCell>
        <mxCell id="KNm6pyuOkcGfjuNK4ojw-77" value="" style="endArrow=classic;html=1;exitX=0.5;exitY=0;exitDx=0;exitDy=0;" edge="1" parent="1" source="KNm6pyuOkcGfjuNK4ojw-61">
          <mxGeometry width="50" height="50" relative="1" as="geometry">
            <mxPoint x="400" y="400" as="sourcePoint" />
            <mxPoint x="160" y="535" as="targetPoint" />
            <Array as="points">
              <mxPoint x="300" y="480" />
              <mxPoint x="260" y="480" />
              <mxPoint x="230" y="480" />
              <mxPoint x="160" y="480" />
            </Array>
          </mxGeometry>
        </mxCell>
        <mxCell id="KNm6pyuOkcGfjuNK4ojw-78" value="" style="endArrow=classic;html=1;exitX=0.114;exitY=1.023;exitDx=0;exitDy=0;exitPerimeter=0;entryX=0.365;entryY=-0.25;entryDx=0;entryDy=0;entryPerimeter=0;" edge="1" parent="1" source="KNm6pyuOkcGfjuNK4ojw-31" target="KNm6pyuOkcGfjuNK4ojw-12">
          <mxGeometry width="50" height="50" relative="1" as="geometry">
            <mxPoint x="400" y="400" as="sourcePoint" />
            <mxPoint x="60" y="470" as="targetPoint" />
            <Array as="points">
              <mxPoint x="264" y="470" />
              <mxPoint x="120" y="470" />
            </Array>
          </mxGeometry>
        </mxCell>
        <mxCell id="KNm6pyuOkcGfjuNK4ojw-79" value="HIT/MISS" style="text;html=1;strokeColor=none;fillColor=none;align=center;verticalAlign=middle;whiteSpace=wrap;rounded=0;" vertex="1" parent="1">
          <mxGeometry x="90" y="570" width="90" height="20" as="geometry" />
        </mxCell>
        <mxCell id="KNm6pyuOkcGfjuNK4ojw-84" value="AOC" style="text;html=1;strokeColor=none;fillColor=none;align=center;verticalAlign=middle;whiteSpace=wrap;rounded=0;fontStyle=1" vertex="1" parent="1">
          <mxGeometry x="700" y="520" width="40" height="20" as="geometry" />
        </mxCell>
        <mxCell id="KNm6pyuOkcGfjuNK4ojw-86" value="" style="endArrow=classic;html=1;" edge="1" parent="1">
          <mxGeometry width="50" height="50" relative="1" as="geometry">
            <mxPoint x="650" y="530" as="sourcePoint" />
            <mxPoint x="700" y="530" as="targetPoint" />
          </mxGeometry>
        </mxCell>
        <mxCell id="KNm6pyuOkcGfjuNK4ojw-90" value="" style="endArrow=classic;html=1;dashed=1;entryX=1;entryY=0.25;entryDx=0;entryDy=0;" edge="1" parent="1" target="KNm6pyuOkcGfjuNK4ojw-46">
          <mxGeometry width="50" height="50" relative="1" as="geometry">
            <mxPoint x="555" y="443" as="sourcePoint" />
            <mxPoint x="580" y="540" as="targetPoint" />
            <Array as="points">
              <mxPoint x="580" y="460" />
              <mxPoint x="590" y="530" />
            </Array>
          </mxGeometry>
        </mxCell>
        <mxCell id="KNm6pyuOkcGfjuNK4ojw-94" value="1" style="text;html=1;align=center;verticalAlign=middle;resizable=0;points=[];autosize=1;strokeColor=none;" vertex="1" parent="1">
          <mxGeometry x="170" y="490" width="20" height="20" as="geometry" />
        </mxCell>
        <mxCell id="KNm6pyuOkcGfjuNK4ojw-95" value="1" style="text;html=1;align=center;verticalAlign=middle;resizable=0;points=[];autosize=1;strokeColor=none;" vertex="1" parent="1">
          <mxGeometry x="100" y="510" width="20" height="20" as="geometry" />
        </mxCell>
        <mxCell id="KNm6pyuOkcGfjuNK4ojw-98" value="" style="endArrow=classic;html=1;dashed=1;exitX=0.588;exitY=0.99;exitDx=0;exitDy=0;exitPerimeter=0;" edge="1" parent="1" source="KNm6pyuOkcGfjuNK4ojw-11">
          <mxGeometry width="50" height="50" relative="1" as="geometry">
            <mxPoint x="400" y="670" as="sourcePoint" />
            <mxPoint x="490" y="530" as="targetPoint" />
            <Array as="points">
              <mxPoint x="453" y="530" />
            </Array>
          </mxGeometry>
        </mxCell>
      </root>
    </mxGraphModel>
  </diagram>
</mxfile>
